<?xml version="1.0" encoding="utf-8"?>
<!-- Generator: Adobe Illustrator 18.0.0, SVG Export Plug-In . SVG Version: 6.00 Build 0)  -->
<!DOCTYPE svg PUBLIC "-//W3C//DTD SVG 1.1//EN" "http://www.w3.org/Graphics/SVG/1.1/DTD/svg11.dtd">
<svg version="1.1" id="Layer_1" xmlns="http://www.w3.org/2000/svg" xmlns:xlink="http://www.w3.org/1999/xlink" x="0px" y="0px"
	 viewBox="0 0 1400 980" enable-background="new 0 0 1400 980" xml:space="preserve">
<g>
	<rect fill="#FFFFFF" width="1400" height="980"/>
	<g opacity="0.3">
		<path d="M90.9,402.4c5.9,4.8,15.4,2.4,15.4,2.4l34.3,16.9c-5.3-0.1-1.6,4.4-1.6,4.4c1.2,3.3,0,8.2,0,8.2L137,437
			c-8.3,5.9-7.1,11.9-7.1,11.9c0.8,5.8,7.2,4.8,7.2,4.8c15.2-3.8,19.2-12,19.2-12c2.1-4.5,8.1-7.9,8.1-7.9
			c6.3-3.6,10.7-8.9,10.7-8.9c5.8-6.8,0-11.9,0-11.9l-8.4-7c-2.6-1.5-2.8,0-2.8,0c-12.5-6.7-20.5-13.6-20.5-13.6
			c-3.6-4-15.2-12.4-15.2-12.4c16.4-10.5,39.8-31.1,39.8-31.1c3.2-4.2,25.2,22.8,25.2,22.8c2.7,4.3,6.9,9.7,6.9,9.7
			C201,394,212.4,401,212.4,401l5.7,5.5c11.2,9.7,42.4,46.5,42.4,46.5c2.4,1.6,3,0.5,3,0.5c1.4,0.6,0.6,1.4,0.6,1.4l-0.9,2.3
			c-3,6.1,10.1,5.5,10.1,5.5c12.2,1.1,13-2.1,13-2.1c3.2-3.3-0.4-9.9-0.4-9.9c0.5-4.5-1.9-7.3-1.9-7.3l-1.1-4.6
			c-6.7-22.3-40.9-57.3-40.9-57.3c-2-4.4-6.8-8.4-6.8-8.4c-6-10.2-13.3-11.2-13.3-11.2c-4.6-14.3-10.1-28.1-10.1-28.1
			c0.1-2.8-1.7-4.7-1.7-4.7c0.4-3.9-2.2-4.8-2.2-4.8c1.2-4.8-0.6-8.2-0.6-8.2c0.7-4.6-2.6-8.9-2.6-8.9c-0.4-9.2-5.2-13.8-5.2-13.8
			l-0.6-1.9c1.4-1.1,0.8-3.2,0.8-3.2c2.5-4.3-1-7-1-7l-1.1-5.2c0.9-2.9-0.2-4.7-0.2-4.7c0.6-2.4-1.2-4.6-1.2-4.6l0.1-7.7
			c2.2-2.4,0.9-7,0.9-7c2.5-5.3,0.8-10.7,0.8-10.7l0.9-6.8c2.8-13.9-2.6-20.6-2.6-20.6l-7.2-11.1c0-5-2.8-7.8-2.8-7.8
			c1.3-1.1,1.4-4.2,1.4-4.2l-0.1-10.2c0.6-7.1-2.6-9.8-2.6-9.8c0.2-14.7-16.1-18.3-16.1-18.3c19.4-8.6,47.2-28.2,47.2-28.2
			c5.7-2.8,3.5-9.9,3.5-9.9c-3-9-8.3-4.6-8.3-4.6c-18.2,12.1-86.3,47.6-86.3,47.6c-1.3,0.6-1.9,2.1-1.9,2.1l-1.6,3.4l-6.6,3.4
			c-0.9-3.2-6.1-7.2-6.1-7.2c-3-1.8-6.1,0-6.1,0l-8.1,3.4c-4.2,0-7.6,4.2-7.6,4.2c-3.6,2.4-2.6,4.4-2.6,4.4c-3.8,0-3.8,3.1-3.8,3.1
			c-3.8-0.4-4.3,2.5-4.3,2.5c-6.1-0.8-3.5,6.6-3.5,6.6c-4.1,5.7,1.8,12.3,1.8,12.3l4.7,5.8l1.7,8c0.7,2,1.9,1.3,1.9,1.3
			c3.5,19.2,9.4,27.5,9.4,27.5c1.9,3,3.4,7.3,3.4,7.3c1.2,3.7,2.7,5,2.7,5c6.6,5.8,18.4-2.1,18.4-2.1c2.1,0.6,4.2-0.8,4.2-0.8
			l13.3-6.3c0,5.8,2.9,32.1,2.9,32.1c-2.7,10.1-2.7,23.9-2.7,23.9c-1.4,2-1.4,5.8-1.4,5.8c0.6,6.3-3.9,9.9-3.9,9.9c-5,1-4,5.3-4,5.3
			l-17,20.6c-5.2,3.5-8.6,12-8.6,12c-2.6,8.1-10.1,21.2-10.1,21.2c-30.5-6.6-22,4.6-22,4.6C77.4,391.3,90.9,402.4,90.9,402.4z
			 M145.9,201l-0.4-4.5h5.5l0.6,4.4C149.5,200.4,145.9,201,145.9,201z M151.7,194.7h-5.8l-0.3-4.8l3.7,0.2
			C149.9,192.6,151.7,194.7,151.7,194.7z M97,206.6v-1.2l-0.9-5.9c-1.4-6.3,2.2-10.6,2.2-10.6l2.4,4.7l0.9-0.5l0.8,1.6
			c4.1,12.7,13.1,27.5,13.1,27.5C104.2,230.9,97,206.6,97,206.6z M133.4,208.6c-12.4-5-19.9-21.4-19.9-21.4
			c-2.3-4.6,3.5-8.5,3.5-8.5c2.3-1.1,1.1-4.1,1.1-4.1l7.8-3.6l1.5,0.3l20.1-8.8c-3,3.8-3.3,9.5-3.3,9.5c-3.2,2.4-2.5,9.8-2.5,9.8
			l1.5,19.8C138.7,202.6,133.4,208.6,133.4,208.6z"/>
		<path d="M619.3,267.3c5.1-1.5,3.2-6.4,3.2-6.4l-1.2-6.3c10.8-4.5,6.2-11,6.2-11c1.3-3.1-1-6-1-6c1-4-1.7-5.8-1.7-5.8
			c1.7-3.4,0-5.4,0-5.4c3.5-1.1,0.7-6.8,0.7-6.8c1.3-3.7-1.9-6.8-1.9-6.8c0-3.6-1.6-4.3-1.6-4.3c0.8-3.2-0.8-5-0.8-5
			c-2.8-3.5-9.2-1.1-9.2-1.1c-0.1-1.3,0-3.8,0-3.8L591.4,83c-1-6.7-5.5-5.2-5.5-5.2c-4.2,0.9-4.4,4.3-4.4,4.3
			c-2.3,36.7,2.5,53.9,2.5,53.9l16.1,72.5c-4.1,2.3-4.9,5.7-4.9,5.7c-6.8,4.2-4.5,9.3-4.5,9.3l-14.9,10.4
			c-0.3-5.5-4.5-13.5-4.5-13.5c1.9-18.7-10-32.1-10-32.1c6.5-6.1,5.3-10.7,5.3-10.7l-1.3-23.4c0.1-7.5-3.2-6.5-3.2-6.5
			c-2-17.5-14.8-20.9-22.1-19.6c-25.3,4.5-19.8,29.8-19.8,29.8c-3.1,5.1,2.2,20.6,2.2,20.6c-11.4,3.8-18.1,11.7-18.1,11.7
			c-4.6,2.9-9.7,17.8-9.7,17.8c-2.5,2.8-3.3,9.3-3.3,9.3c-6.8,9.4-13.1,30.4-13.1,30.4c-2.3,2.9-2.2,9-2.2,9
			c-2.2,1.3-1.8,3.9-1.8,3.9c-1.8,2-0.7,8.4-0.7,8.4l-1.3,1.9c-17.7,5.7-22.8,31.4-22.8,31.4c-1.8,1.2-0.9,4.3-0.9,4.3
			c-0.6,1.5,0.9,3.6,0.9,3.6c-1.7,0.8-1.8,3.8-1.8,3.8c-1.2,1.2-0.7,4.5-0.7,4.5c-2.5,11.6-8,25.5-8,25.5c-3,3.5-5,10.5-5,10.5
			c-4,2-9,10.2-9,10.2c-17,1.4-24.8,19-24.8,19c-3.9,9.7-13.5,19.7-13.5,19.7c-16.9,0-14.8,13.2-14.8,13.2
			c1.4,7.5-0.1,18.3-0.1,18.3c-3.5,10.6,6.4,21.3,6.4,21.3c4.6,8.1,15.9,5.1,15.9,5.1c7.7-2.8,1.2-19.4,1.2-19.4
			c17.4-2.2,6.1-9,6.1-9l38.2-30c8.9,0.1,10.1-5.3,10.1-5.3c4.6,0.3,4.9-3.8,4.9-3.8c4.6-1.1,6.9-6.3,6.9-6.3
			c4.2-7.7,13.5-16.3,13.5-16.3c6.2-6.1-0.9-6.5-0.9-6.5c7.2-14.8,20.2-25,20.2-25c3-3.5,6.6,2.1,6.6,2.1l23.5,30.3
			c-15.8,10-24,33.6-24,33.6l-17.9,21l-1.3-0.2c-4.7,2.1-7.6,16.4-7.6,16.4c-1.5,0.8-2.5,3.7-2.5,3.7c-2.6,3.4,1,5.7,1,5.7l16.9,7
			c14.6,5.5,28.3,3.6,28.3,3.6c8.8-0.1,6-7.3,6-7.3c-1.6-4.6-11-6.4-11-6.4c-6.7-2.9-2.7-5.6-2.7-5.6c9.6-1.2,4.5-6,4.5-6l49.5-46
			c7.4-0.5,6.5-7.3,6.5-7.3c4.1-2.4,3.5-7.1,3.5-7.1c4.3-4.2,3-9.4,3-9.4c3-9.3,10.3-19.4,10.3-19.4c10.7-10.9-7.4-14.4-7.4-14.4
			c-13.6-3.6-22.3,4.6-22.3,4.6c0.1-12.8-10.3-26.1-10.3-26.1c-7.1-11.2-4.5-13.6-4.5-13.6c9.6-8.8,2.5-17.4,2.5-17.4
			c1.9-2.5,6.8-13.2,6.8-13.2c1.7,1.5,10,3.5,10,3.5c7.7,5.8,13.2-3.9,13.2-3.9c7-0.6,18.1-2.6,18.1-2.6h1.4c9-1.4,19-5.3,19-5.3
			C614.2,269,619.3,267.3,619.3,267.3z M558.4,170.1c0.8,0,3.5-0.9,3.5-0.9v3.3c-1.5,1.3-4.6,2.4-4.6,2.4
			C558,173.3,558.4,170.1,558.4,170.1z M557.9,176.7c2-0.4,6.7-4.4,6.7-4.4l0.4,4.4c-1.4,2.4-5.6,4.1-5.6,4.1
			C559.1,179.5,557.9,176.7,557.9,176.7z M560.8,186.4l-0.9-4c2-0.9,5.6-3.6,5.6-3.6C565,182.7,560.8,186.4,560.8,186.4z
			 M601.7,241.4c0,0-2.4,7.3-13.7,6.4l9.2-10c0,0,4.2-5.3,10.3-3.9C607.5,233.9,603.6,238.6,601.7,241.4z"/>
		<path d="M728.1,266.5c-0.2,7.6,3.4,14.6,3.4,14.6l1.6,7.2c-5.1,16.1,10.4,32.5,10.4,32.5c1.6,5.1,8.3,9.3,8.3,9.3
			c2.1,4.8,6.4,6.3,6.4,6.3l20,23.4c-3.1,4.1,0,9.2,0,9.2l5.2,10.7c0.5,5.5,5.2,7.1,5.2,7.1c1.6,3.5,3.1,3.9,3.1,3.9
			c2.4,7.6,7.6,8.9,7.6,8.9l31.1,39.8c1.7,3.4,3.7,4.1,3.7,4.1c3.1,2,4-0.9,4-0.9c0.7-3.5,2.3-4.2,2.3-4.2c1.8,4.1,5.5,16,5.5,16
			c-0.6,6.5,4.3,8.1,4.3,8.1c12.7,1.7,15-1.8,15-1.8c7.9-7.9,0-15,0-15c-0.5-2.4-5.1-7.2-5.1-7.2c1.3-1.5,1-6.7,1-6.7
			c1.4-8.9-5.1-12.3-5.1-12.3l-10.7-11.8c-2.2-13.4-16.3-34.6-16.3-34.6c-0.5-2-4.3-5.1-4.3-5.1c-2-7.1-9.2-16.7-9.2-16.7
			c-1.8-3.8-12.6-21.3-12.6-21.3C823.1,346.1,832,349,832,349l1.5,2.4c-0.4,2.7,2.1,7,2.1,7c12.1,21.9,24.8,33.3,24.8,33.3
			l10.9,23.5c1.2,4.7,5,5.6,5,5.6c0.5,1.9,1.4,6,1.4,6c-0.7,6.5,5.8,4.3,5.8,4.3l8.3-2.1c19.9-5.3,19-7.5,19-7.5
			c0.3-5-6.1-9.1-6.1-9.1c-2.8-1.2-8.3-6.2-8.3-6.2c12.9,3.4,6.2-1.1,6.2-1.1c0.9-4.3-5.5-8.9-5.5-8.9L865,334.4c1-5.9-4-6.7-4-6.7
			c0-3.6-3.4-4.5-3.4-4.5c1.4-6-4.3-7.7-4.3-7.7c0.1-2-1.8-4-1.8-4l-6.7-10.3c-6.4-12.8-16.4-7.4-16.4-7.4
			c-6.1-7.6-20.9-19.6-20.9-19.6c-1.2-3.6-7.7-8.2-7.7-8.2c-2.3-0.8-2.2-4.1-2.2-4.1c0.4-6.9-5.1-16.7-5.1-16.7
			c-1.3-7.5-3.3-19.1-3.3-19.1l9.2,7.4c3,3,5.3-2.7,5.3-2.7l5.4,1c4,1.4,7.3-1.2,7.3-1.2c9.1-1.8,13.9-5.9,13.9-5.9l17.4-14.7
			c10,0.9,15-10.1,15-10.1c6.5-3.8,0.2-10.2,0.2-10.2c0.4-2.5-1.7-4.6-1.7-4.6c0.8-1.8-0.1-3.3-0.1-3.3c0.8-3.5-1.2-5.7-1.2-5.7
			c2.5-2.3,2-6.6,2-6.6c-0.2-6.2-5.5-10.1-5.5-10.1c-0.5-2.7-4.9-5-4.9-5c-6.9-25.7-8.6-67.9-8.6-67.9c0.7-6.8-5.7-8.6-5.7-8.6
			l-4.4-1.6c-10.1-4.2-11.3,2.1-11.3,2.1c-4.6,29.1,11.8,79.4,11.8,79.4l1.3,1.1c-4.2,2.3-2.7,6.8-2.7,6.8l1,5.1l-7.1,3.9l-8.6,3
			c-10.3,1.4-19,5.3-19,5.3c-6.5,3.1-14.9,0.5-14.9,0.5c-0.4-1.6-3.6-1-3.6-1l-5.1-1.5c-2.7-1.7-6.2-1.2-6.2-1.2
			c-1.3-0.5-2.8-0.2-2.8-0.2l3.7-3.7c6,1,7.6-0.9,7.6-0.9c5.1-7.6,6.1-17.7,6.1-17.7c1-3.6-1.9-3.8-1.9-3.8l-7.1-1.1
			c-0.1-1.9-0.4-5.2-0.4-5.2c2.3-2.2,2-3.7,2-3.7c12.9,0.5,11.2-1.3,11.2-1.3c0.2-1.4-6.2-1.9-6.2-1.9c-2.9-0.6-2.8-2.9-2.8-2.9
			c-1.4-27.9-27.6-20.5-27.6-20.5c-20.9,5-19.2,26-19.2,26c-1.2,5,3.8,5.2,3.8,5.2c0.7,6.2,3,10.7,3,10.7c-10.7-1.2-6.5,6.2-6.5,6.2
			l-0.3,9.4c-2.2,1.7-0.6,3.3-0.6,3.3c-10.4,4.5-9.3,16-9.3,16C716,231.4,728.1,266.5,728.1,266.5z M808,201.9
			c6.6-1.6,13.6-7.6,13.6-7.6c7-6.3,18.8-12.1,18.8-12.1c-3.3,3.3-2.4,9.4-2.4,9.4c0,2.9-1.3,4.5-1.3,4.5c-1.3,1.2-1.3,4.8-1.3,4.8
			c-2.5,2.7-11.1,4.7-11.1,4.7c-4.2,0.8-10.1,2.8-10.1,2.8c-6.5,3-8.7,0-8.7,0c-1.7-2.8-5.7-3.6-5.7-3.6L808,201.9z M777.3,171.7
			c0-0.8-0.5-2.4-0.5-2.4l1.7-0.4L777.3,171.7z M776.5,168c-0.3-0.7-1.4-2.6-1.4-2.6c1.7,0.5,3.5,2.4,3.5,2.4L776.5,168z
			 M779.1,166.4c-0.3-0.8-4.4-2.8-4.4-2.8l-1.2-1.9c1.9,0,6.7,0.5,6.7,0.5C780.1,163.1,779.1,166.4,779.1,166.4z M775.4,154.8h6.2
			c0.2,1.9-0.6,4.8-0.6,4.8c-0.8-1.3-5.8-3.3-5.8-3.3S775.3,154.9,775.4,154.8z M773.9,157.6c2.8,0.4,5.8,2.9,5.8,2.9h-6.3l-0.6-0.2
			L773.9,157.6z M771.6,163.7c0,0,2.9,1,3.5,4.3c0,0-4.2-0.1-5.3-0.7L771.6,163.7z M769.7,168.9c1.9,0.6,6,0.3,6,0.3
			c0.4,0.7,0.6,3,0.6,3c-0.7,4.3-7.9,1.4-7.9,1.4C769.7,172.5,769.7,168.9,769.7,168.9z"/>
		<path d="M993,250.2l3.8,3.6c0.6,5.6,5.7,7,5.7,7v13.7c0.2,3.5,4.4,2.9,4.4,2.9c4.4,0,5.1-2.8,5.1-2.8v-11.1
			c4.5,3.8,13.7,3.4,13.7,3.4l15.2,14.6c7.1,5.3,16.2-2.3,16.2-2.3l17.2-15.5c4.8,3.2,7.7-0.7,7.7-0.7l10.2-10.6
			c8.3,1.1,19.8,16.9,19.8,16.9c6.4,11.1,26.9,32.2,26.9,32.2c-9.5,9.8-33.3,48.2-33.3,48.2c-2-2.3-8.8-3.2-8.8-3.2
			c-2.9-0.3-8-2.6-8-2.6c-8.3-2-5.7,4-5.7,4l11.4,27.6c-0.2,3.6,4,6.6,4,6.6c1.2,3.7,4.3,5.8,4.3,5.8c1.5,5.1,5.6,5.4,5.6,5.4l6,4.5
			c16,14.6,35.5,44.7,35.5,44.7c-4.1,1.4-5.8,4.9-5.8,4.9c-1.1,2.1-4,2.9-4,2.9c-9.2,0.2-9.4,5.7-9.4,5.7c0.3,6.6,7.7,7.1,7.7,7.1
			h14.6c10.9,0,18.2-5.2,18.2-5.2c16.7-1.8,22.5-8.1,22.5-8.1c3.7-4.5-1.7-8.6-1.7-8.6l-3.8-11.4c0.2-6.4-3.4-1.2-3.4-1.2
			c-21.5-26.9-20.9-30.7-20.9-30.7c-3.7-15.4-16.4-26.9-16.4-26.9c11.4-6,26.3-25,26.3-25c2-2.4,18.6,20,18.6,20
			c-5.7,9.4,0.2,11.8,0.2,11.8c14,8.6,21.8,17.5,21.8,17.5c4.5,5.4,8.6,4.1,8.6,4.1c11.4,8.6,15,5.2,15,5.2
			c13.7,8.6,24.8,13.2,24.8,13.2c17.3,6.7,39,20,39,20c1.2,2.9,5.5,3.8,5.5,3.8l-1,8.9c-14.3,8.8-6.9,9.9-6.9,9.9l20.7-0.7
			c10.8-2.1,12.2-20,12.2-20c10.8-16.8,9.1-24.9,9.1-24.9c-0.5-4.7-13.7-4.5-13.7-4.5c-7.9-5.2-9-2.2-9-2.2
			c-9.9-1.8-25.1-15.7-25.1-15.7c-23.3-23.7-50-27.5-50-27.5c-1.2-6.9-10.4-22.4-10.4-22.4l-16.7-29.8c8.8-33.2-25-45.6-25-45.6
			c-0.2-3.8-7.8-9.1-7.8-9.1l-23-27c-23.6-31.6-59.9-43.9-59.9-43.9c-2.1-5.7-5.5-4.9-5.5-4.9l-1.9-11.1c-1.3-8.9-4.7-9.5-4.7-9.5
			c-8.4-19-29.3-12-29.3-12c-19.2,7.1-13.5,26.1-13.5,26.1c-2.5,5.4,4.5,7.3,4.5,7.3l1.7,5.9c-4.7,2.4-3.6,3.2-3.6,3.2l5.4,14.6
			c4.8,5.1,17.3,2.3,17.3,2.3l3.4,3.2l-9.2,23.9c-9.7,2.9-18.3,8-18.3,8c-10.1,6.3-13,3.3-13,3.3l-5.9-7.8c-0.2-4.3-2.6-6.4-2.6-6.4
			c-0.6-4.8-3.8-7.7-3.8-7.7c-0.8-4.3-5.4-5.7-5.4-5.7c-0.6-18.6,5.8-43.1,5.8-43.1c2.6-11,1.8-25.3,0.6-35.8
			c-0.9-8-3.1-22.5-3.8-25.4c-2.5-10.9-6-9-6-9c-5,1.5-4.8,12.7-4.8,12.7l-0.6,102h-7.5c-6.3,0.6-5.2,6.8-5.2,6.8
			c-2.9,1.8-1,5.8-1,5.8c-3.3,2.9-0.5,7.3-0.5,7.3C989.2,244.8,993,250.2,993,250.2z M1050,191.7c0.3-0.2,1.8-0.7,1.8-0.7l1.8,4.4
			l-2.1,0.9L1050,191.7z M1051.8,198.2l2.6-0.9c1.6,2.4,3.6,5,3.6,5c-0.9,0.9-4,1.5-4,1.5L1051.8,198.2z M1054.9,205.2
			c1.3-0.2,4-1.4,4-1.4l4,4.3C1057.6,208.8,1054.9,205.2,1054.9,205.2z"/>
		<path d="M358.3,538.8l-1.1-4.2c-2.5-7.6-9.3-5.3-9.3-5.3c-30.3,8.9-102.9,57.3-102.9,57.3v2.4l-1.7,1.4
			c-17.7-14.9-25.6,0.7-25.6,0.7c-3.1,0-9,1.8-9,1.8l-22.1,4.5c-14.9,0.4-29.8,7.8-29.8,7.8l-5.2-3.4c4.3-6.2,1.8-20.2,1.8-20.2
			c7.4-3.1-1.9-3.8-1.9-3.8c-2.3-1.5-1.3-8.4-1.3-8.4c17.2-6,0-6.1,0-6.1c-4.6-19.4-22.4-16.7-22.4-16.7c-24.5,2.7-23.5,27-23.5,27
			c-4.7,4.6,0.8,6.5,0.8,6.5c4.2,18.3,15.6,17.6,15.6,17.6l1.5,6.5c-19.3,2.3-18.8,22.2-18.8,22.2l0.2,18.1
			c-1.1,13.6,5.6,16.4,5.6,16.4l11.2,14.6l1.5,41.6c-0.8,4.8-0.4,9.1-0.4,9.1c-3.7,7,0.7,7,0.7,7c-12.7,29.8-4.3,77.6-4.3,77.6
			c-5.7-6.6-15.6-8.2-15.6-8.2c-10.1-1.1-9.8,4.5-9.8,4.5c-0.1,5.6,6,7.8,6,7.8l7.7,8.1c1.8,5.2,4.6,6.9,4.6,6.9l-18.7,39.9
			c-4.5,3.7-3.7,9.6-3.7,9.6c-3.7,0.1-3.2,3.2-3.2,3.2c-15.9,3.5-18.3,8.2-18.3,8.2c-3.7,7.4,4.6,11.1,4.6,11.1
			c26.1,8.7,32.7-2.4,32.7-2.4c3.1,1.3,7.7,0.6,7.7,0.6c13.8-2.8,9.7-7.7,10.8-10.1c1.1-2.4,0-7.9,0-7.9c7.6-24.5,20-32.6,20-32.6
			l49.3,29.3c-4.3,5.9-9.1,17.9-9.1,17.9c-3.5,11,10.1,7.9,10.1,7.9c14.1-3.1,20.3-20,20.3-20c0.7-6.9,6.5-9.3,6.5-9.3
			c8.4-3,10.8-12.9,10.8-12.9c2.1-10.1-4.9-10.1-4.9-10.1c-4.8-3.4-16-4.5-16-4.5c-17.4-8.3-24.2-16-24.2-16
			C179.8,820.2,158,813,158,813c2.3-3.7,2.5-7.9,2.5-7.9c3.5-3.2,2.8-6.8,2.8-6.8c19.8-17.7,30.5-42.3,30.5-42.3
			c9.6-14.3,12.5-29.5,12.5-29.5c2.8-2.1,1.7-8.2,1.7-8.2c-0.8-10.1-5.5-20-5.5-20l-10.5-49.4c6.3,5.5,17,9.8,17,9.8
			c8.4,3,10.2-1.3,10.2-1.3c3.2-2.4,3.1-5,3.1-5l-0.1-18.8c3-1.8,2.5-4.3,2.5-4.3c2.1-0.3,3-3.4,3-3.4c3.4-2.7,2-6.2,2-6.2
			c4.9,0.7,5-3.7,5-3.7c3.8,1.6,4.5-2.6,4.5-2.6c5,1.8,6.3-4.3,6.3-4.3c7.5,0.5,4.2-10.3,4.2-10.3c3.4,1.9,6.2,0.2,6.2,0.2
			c34.6-23.6,96.3-51.8,96.3-51.8C360.3,544.3,358.3,538.8,358.3,538.8z M204.8,615.6l-11.1,7.5l-4.1-5.5c4.7-2.7,17.4-8.1,17.4-8.1
			C205.2,611,204.8,615.6,204.8,615.6z"/>
		<path d="M564.1,880.8c3.4-7.7-3-12.2-3-12.2L527.3,802c2-6.5-3.1-8.9-3.1-8.9c0-4.1-2.7-5.6-2.7-5.6c-0.2-5.8-5.3-7.3-5.3-7.3
			l-11.1-15.9c-13.8-19.6-27.9,4.4-27.9,4.4c-12.7-10.2-34.3-18.7-34.3-18.7l-1.6-5c3.2-15.9-5-52.7-5-52.7l2.7-0.8
			c7.2,1.6,11.5-6.7,11.5-6.7c3.2-3.8,15.2-17.1,15.2-17.1l0.2,13.5c-0.3,10.7,7.2,18.9,7.2,18.9c9.6,12.6,13.1,5.1,13.1,5.1l6-61.1
			c21-13.5,7.8-34.1,7.8-34.1c4.6-2.4,1.9-9.9,1.9-9.9c1.9-10.7-12.6-18.3-12.6-18.3c-20-6.7-27.2,16.8-27.2,16.8
			c-3.5,1.9-13.6,13.5-13.6,13.5c-4.4,2.6-16.9,10.8-16.9,10.8c-4.1,0-13,2-13,2l-0.1-6.3c2.6-3.9-1.4-7.3-1.4-7.3
			c-0.5-22.3-22.9-21.5-22.9-21.5c-23,0.1-23.8,19.1-23.8,19.1c-3.8,2-1.1,8.8-1.1,8.8c-1.4,28,3.2,31.6,3.2,31.6
			c1.1,3-1.7,3.4-1.7,3.4l-3.1,0.8c-5.1,1.7-3.8,7.8-3.8,7.8c-14.2,13.1,2,53.9,2,53.9c4.9,14.2,4.8,29.2,4.8,29.2
			c-2.4,12.3,5.8,14.2,5.8,14.2l-0.7,5.5c-10.2,4.3-8.5,12.8-8.5,12.8c-2.2,3.2-0.9,7-0.9,7l-1.8,18.6
			c-3.2,18.7-12.7,44.2-12.7,44.2c-4.6,2.4-11.8,9-11.8,9c-18.4,2-28,9-28,9l-11.4,0.2c-13.5,0.2-16.7,7.3-16.7,7.3
			c-3.8,5.1-7,5.8-7,5.8c-21.5,5.6-11.6,22.2-11.6,22.2c9.2,11,33.6-1.4,33.6-1.4c1.9,3.1,8.4,0,8.4,0l30-3.4
			c19.1,9.4,43.7-3.4,43.7-3.4c6.5-1.9,2.2-6.3,2.2-6.3c-5.6-2.7-11.1-10.1-11.1-10.1c13.8-5.3,19.3-16.8,19.3-16.8
			c8.9-18.4,29.6-44.6,29.6-44.6c23.7,1.8,67.8,3.9,67.8,3.9c5.7,25,25.4,43.2,25.4,43.2c6.5,6.8,13.3,18.9,13.3,18.9l-0.5,11
			c-3.5,9.4,3.9,9.9,3.9,9.9l35.3,0.2c11.4-1,3.9-12.5,3.9-12.5L564.1,880.8z M428.5,665.3c-0.5-3.5,3.6-5.7,3.6-5.7l15.8-13.2
			c8.6-5.3,7.3-12.9,7.3-12.9l11.1-6.9c4.3,3.3,1.7,6.8,1.7,6.8c-5.5,3.4-6.4,9.3-6.4,9.3c-5.1,5.9-30.4,30-30.4,30L428.5,665.3z"/>
		<path d="M1015.4,698.3c1.9-3.1-2.2-7-2.2-7c2-2-1-6.4-1-6.4c1.2-1.7-1.7-5.2-1.7-5.2c1.3-2.3-1.2-5.4-1.2-5.4
			c0.1-7.7-12.3-5.5-12.3-5.5l-1-5.2c3.1-1.5,2.4-4.2,2.4-4.2c-12.7-60.3-16-97.9-16-97.9c-0.5-9.9-9.8-2.2-9.8-2.2
			c-6.8,4.6-8.7,9.6-8.7,9.6c-6.6,26.7,19.8,105.6,19.8,105.6c-6.8,3.9-5.5,10.7-5.5,10.7l-10,0.8v1.3c-9.3,2.2-37,1.5-37,1.5
			c-8-0.1-13.1-6.8-13.1-6.8c-3.5-10.3-10.2-18.9-10.2-18.9c13.8-1.6,17.8-15.4,17.8-15.4c6.6-23.3,0.9-22.6,0.9-22.6
			c3.4-22.7-17.6-26.7-17.6-26.7c-23.8-3.4-27,19.5-27,19.5c-4.4,1.1-4,7.7-4,7.7v16.2c-11.7,1.9-31,20-31,20l-50,43.6
			c-3.7,1.7-4.8,5.5-4.8,5.5l-7.9,5.2c-24.2,7.6-29.1,40.3-29.1,40.3c-10.1,22.5-35.9,50.5-35.9,50.5C701,807,685.4,821,685.4,821
			l-41.7,29.5c-3.2-2.2-14-0.7-14-0.7c-9.9,3.2-6.9,14.2-6.9,14.2c1.2,5.4-3.5,9-3.5,9c-7.2,5.6-6.2,18.7-6.2,18.7
			c2.4,14.5,10.2,13.3,10.2,13.3c6.4,0.9,11.4-10.1,11.4-10.1c7.2-18.8,14.2-20.8,14.2-20.8c2.3,1.9-0.2,4.8-0.2,4.8
			c-6.6,11,0.8,7.9,0.8,7.9l72.6-41.8c7,3,7.4-2.1,7.4-2.1c5.5,1.6,6.1-3.3,6.1-3.3c7.8,2.2,8.3-3.9,8.3-3.9
			c4.4,1.3,5.4-2.3,5.4-2.3c4-5,11.7-7.7,11.7-7.7c14.6-3.5,6.6-15.7,6.6-15.7c9.2-5.7,46.1-35.8,46.1-35.8c2.3-1.9,4.6,1.6,4.6,1.6
			l29.4,37c-3.5,4.1-11.9,25.4-11.9,25.4l-29.3,35.5c-5.9-1.3-10.9,14.6-10.9,14.6c-13.1,13.1,19.9,16.8,19.9,16.8l31.2-0.1
			c19.7,1.1,16.4-6.6,16.4-6.6c-1.5-4.4-14.4-3.5-14.4-3.5c-0.9-1.7-8.5-6.1-8.5-6.1l48.5-54.5c6.4-2.2,6.1-6.4,6.1-6.4
			c4.4-1.6,4.5-5.7,4.5-5.7c3.9-1.6,3.5-7,3.5-7c3.5-1.7,2-7.9,2-7.9c18.1-17.5,8.5-23,8.5-23c-8.7-6.3-23.2,9-23.2,9
			c-13.3-23.2-42.6-48.3-42.6-48.3c-3.7-2.4-0.7-5-0.7-5c28.4-13.6,50.5-40.6,50.5-40.6c3.9,7.1,5.5,4.8,5.5,4.8l21.7,22.9
			c4.1,5.5,13.4,2.5,13.4,2.5c20.4-4.8,31.5-11.7,31.5-11.7l1.8,0.2l7.7-2.8c7.7,0.7,16.6-2.8,16.6-2.8l1,7.5c0.5,3.1,6,2,6,2
			c4.4-0.7,5.2-3.1,5.2-3.1l-1.5-7.1c13.1-2.2,10.9-8.5,10.9-8.5C1018.4,700.6,1015.4,698.3,1015.4,698.3z"/>
		<path d="M1345.3,696.6l-95.9-54.3c-2.5-1.6-3.6,0.7-3.6,0.7c-1.7,3-3.8,1.8-3.8,1.8c0.6-8.6-4.8-6.7-4.8-6.7l0-2.6
			c0.3-9.2-9.2-1.9-9.2-1.9c5.5-7.5-4.1-9.9-4.1-9.9c-0.9-3.3-5.3-6.1-5.3-6.1c-1.8-4.7-6.5-4.9-6.5-4.9c-2.7-3.3-8.2-2.3-8.2-2.3
			c-3.3-0.8-3.5,2.6-3.5,2.6c-1.9,1.8-1.2,3.9-1.2,3.9h-11.5c-20.3-4-38.8-0.4-38.8-0.4l-18.1,3.5l1.9-3.6
			c21.2-0.9,4.2-11.2,4.2-11.2c-3.3-19.7-22.4-21-22.4-21c-23.6-2.3-25.2,19.9-25.2,19.9c-4.2,6.3,0.1,10.6,0.1,10.6
			c-1.7,8.1,3,14.7,3,14.7v2.5c-11.7,4.2-10.2,8.1-10.2,8.1c-7.5,11.6-3,28.7-3,28.7c3.7,18.9,19.9,55.4,19.9,55.4
			c1.9,9.2,5.1,10.2,5.1,10.2l4.3,7.5c-0.2,4.2,1.1,6.2,1.1,6.2c-6.8,25.8,5.4,33.5,5.4,33.5c2.8,2.6,2.5,6.5,2.5,6.5
			c-1.1,2-0.5,5.9-0.5,5.9c-3,11.8-0.5,16.5-0.5,16.5c-2.6,1.4-0.9,6.6-0.9,6.6c-3.5,2.5-4.5,9.4-4.5,9.4c-1.2-0.4-2.4,1.1-2.4,1.1
			c-14.4,2.6-50,26.4-50,26.4l-23.1,12.3c-4,0.6-5.4,3.3-5.4,3.3l-10.9,5.9c-5.6,4.2,3.1,12.3,3.1,12.3
			c-5.6,6.8,10.6,15.1,10.6,15.1c22.7,4.5,16.5-5.9,16.5-5.9c46.4-27.3,70-32.5,70-32.5c5.6,2.8,7.9-2.6,7.9-2.6
			c4.2,1.4,6.8-2.1,6.8-2.1c5.3,1.8,7.9-3.5,7.9-3.5c2.2,0,5.2-2.9,5.2-2.9c5.2-3.7,13.6-8.1,13.6-8.1c4.3-2.5,5.1-5.6,5.1-5.6
			c1.6-10.4-10.4-16.8-10.4-16.8c2.5-5.4,11.6-28,11.6-28c9.9,3.7,41,9.6,41,9.6c-3.1,4-5,21-5,21c-1.7,2.3-3.3,15.1-3.3,15.1
			c-1.9,2.6-3.4,12.6-3.4,12.6c-1.6,3.4-2.8,7.5-2.8,7.5c-1.6,0.9-3.1,3.8-3.1,3.8c-3.1,1.9-7.9,7.5-7.9,7.5
			c-5.8,4.1-1.8,7.6-1.8,7.6c6.8,6.9,14.2,9.7,14.2,9.7c6.1-0.5,8.3,3.1,8.3,3.1c10.1,10.4,21,12.9,21,12.9h11.4
			c3.6-6.9-4.7-11.7-4.7-11.7c-5.3-2.8-5.6-9.1-5.6-9.1c3-1.1,1.9-6.2,1.9-6.2c12.6-48.9,22.5-71.3,22.5-71.3c7.9-0.9,5.3-9,5.3-9
			l2.5-5.7c6.4-6.2,1.4-15.8,1.4-15.8c-2.3-10.9-0.2-16.9-0.2-16.9c4.8-7.1,1.1-10.7,1.1-10.7c-14.1-5.4-25.5,19.1-25.5,19.1
			c-23.1-14.6-59.6-28-59.6-28c-1.4-6.8-10.2-9-10.2-9l-2.3-3.6c3-6.2-1.8-13-1.8-13s-17.5-26.7-12.8-26.7s12.4,0.7,12.4,0.7
			c2.6,0.6,5-0.1,5-0.1l5.8,0.9c5.4,1.6,9.2-3.3,9.2-3.3c15.4-7.3,29.8-19.7,29.8-19.7c16.8,4.5,29.5-9.1,29.5-9.1
			c0,2.9,0.8,4.5,0.8,4.5c32.3,24.4,94,55.1,94,55.1c6.1,3.9,10.5-5.8,10.5-5.8C1351.7,698.4,1345.3,696.6,1345.3,696.6z
			 M1218.7,644.7l-7.1,3.8c-6.3,2.3-10,6.5-10,6.5c-11.2,6.8-34.2,13.5-34.2,13.5c-2.1-6.4-6.2-3.7-6.2-3.7c-1.8-1.8-15-4.5-15-4.5
			c-1.6-1-5.7-2.4-5.7-2.4c-1.7-3.9-9.1-7.9-9.1-7.9c6.8-5.4,7.9-10.6,7.9-10.6c2.5-2.3,9.9-5,9.9-5c17.2,0,28.1-3,28.1-3h9.9
			l11.3,2.6c11.1,12.1,19.3,7.4,19.3,7.4C1221.7,643.7,1218.7,644.7,1218.7,644.7z"/>
	</g>
	<g>
		<path d="M278.9,450.8c0.5-4.5-1.9-7.3-1.9-7.3l-1.1-4.6c-6.7-22.3-40.9-57.3-40.9-57.3c-2-4.4-6.8-8.4-6.8-8.4
			c-6-10.2-13.3-11.2-13.3-11.2c-4.6-14.3-10.1-28.1-10.1-28.1c0.1-2.8-1.7-4.7-1.7-4.7c0.4-3.9-2.2-4.8-2.2-4.8
			c1.2-4.8-0.6-8.2-0.6-8.2c0.7-4.6-2.6-8.9-2.6-8.9c-0.4-9.2-5.2-13.8-5.2-13.8l-0.6-1.9c1.4-1.1,0.8-3.2,0.8-3.2c2.5-4.3-1-7-1-7
			l-1.1-5.2c0.9-2.9-0.2-4.7-0.2-4.7c0.6-2.4-1.2-4.6-1.2-4.6l0.1-7.7c2.2-2.4,0.9-7,0.9-7c2.5-5.3,0.8-10.7,0.8-10.7l0.9-6.8
			c2.8-13.9-2.6-20.6-2.6-20.6l-7.2-11.1c0-5-2.8-7.8-2.8-7.8c1.3-1.1,1.4-4.2,1.4-4.2l-0.1-10.2c0.6-7.1-2.6-9.8-2.6-9.8
			c0.2-14.7-16.1-18.3-16.1-18.3c19.4-8.6,47.2-28.2,47.2-28.2c5.7-2.8,3.5-9.9,3.5-9.9c-3-9-8.3-4.6-8.3-4.6
			c-18.2,12.1-86.3,47.6-86.3,47.6c-1.3,0.6-1.9,2.1-1.9,2.1l-1.6,3.4l-6.6,3.4c-0.9-3.2-6.1-7.2-6.1-7.2c-3-1.8-6.1,0-6.1,0
			l-8.1,3.4c-4.2,0-7.6,4.2-7.6,4.2c-3.6,2.4-2.6,4.4-2.6,4.4c-3.8,0-3.8,3.1-3.8,3.1c-3.8-0.4-4.3,2.5-4.3,2.5
			c-6.1-0.8-3.5,6.6-3.5,6.6c-4.1,5.7,1.8,12.3,1.8,12.3l4.7,5.8l1.7,8c0.7,2,1.9,1.3,1.9,1.3c3.5,19.2,9.4,27.5,9.4,27.5
			c1.9,3,3.4,7.3,3.4,7.3c1.2,3.7,2.7,5,2.7,5c6.6,5.8,18.4-2.1,18.4-2.1c2.1,0.6,4.2-0.8,4.2-0.8l13.3-6.3c0,5.8,2.9,32.1,2.9,32.1
			c-2.7,10.1-2.7,23.9-2.7,23.9c-1.4,2-1.4,5.8-1.4,5.8c0.6,6.3-3.9,9.9-3.9,9.9c-5,1-4,5.3-4,5.3l-17,20.6c-5.2,3.5-8.6,12-8.6,12
			c-2.6,8.1-10.1,21.2-10.1,21.2c-30.5-6.6-22,4.6-22,4.6c10.2,14.4,23.8,25.5,23.8,25.5c5.9,4.8,15.4,2.4,15.4,2.4l34.3,16.9
			c-5.3-0.1-1.6,4.4-1.6,4.4c1.2,3.3,0,8.2,0,8.2L130,437c-8.3,5.9-7.1,11.9-7.1,11.9c0.8,5.8,7.2,4.8,7.2,4.8
			c15.2-3.8,19.2-12,19.2-12c2.1-4.5,8.1-7.9,8.1-7.9c6.3-3.6,10.7-8.9,10.7-8.9c5.8-6.8,0-11.9,0-11.9l-8.4-7c-2.6-1.5-2.8,0-2.8,0
			c-12.5-6.7-20.5-13.6-20.5-13.6c-3.6-4-15.2-12.4-15.2-12.4c16.4-10.5,39.8-31.1,39.8-31.1c3.2-4.2,25.2,22.8,25.2,22.8
			c2.7,4.3,6.9,9.7,6.9,9.7C194,394,205.4,401,205.4,401l5.7,5.5c11.2,9.7,42.4,46.5,42.4,46.5c2.4,1.6,3,0.5,3,0.5
			c1.4,0.6,0.6,1.4,0.6,1.4l-0.9,2.3c-3,6.1,10.1,5.5,10.1,5.5c12.2,1.1,13-2.1,13-2.1C282.5,457.4,278.9,450.8,278.9,450.8z
			 M90,206.6v-1.2l-0.9-5.9c-1.4-6.3,2.2-10.6,2.2-10.6l2.4,4.7l0.9-0.5l0.8,1.6c4.1,12.7,13.1,27.5,13.1,27.5
			C97.2,230.9,90,206.6,90,206.6z M134.6,181.9l1.5,19.8c-4.4,1-9.7,6.9-9.7,6.9c-12.4-5-19.9-21.4-19.9-21.4
			c-2.3-4.6,3.5-8.5,3.5-8.5c2.3-1.1,1.1-4.1,1.1-4.1l7.8-3.6l1.5,0.3l20.1-8.8c-3,3.8-3.3,9.5-3.3,9.5
			C133.8,174.4,134.6,181.9,134.6,181.9z M138.9,201l-0.4-4.5h5.5l0.6,4.4C142.5,200.4,138.9,201,138.9,201z M138.9,194.7l-0.3-4.8
			l3.7,0.2c0.6,2.5,2.4,4.6,2.4,4.6H138.9z"/>
		<path d="M620.5,243.6c1.3-3.1-1-6-1-6c1-4-1.7-5.8-1.7-5.8c1.7-3.4,0-5.4,0-5.4c3.5-1.1,0.7-6.8,0.7-6.8c1.3-3.7-1.9-6.8-1.9-6.8
			c0-3.6-1.6-4.3-1.6-4.3c0.8-3.2-0.8-5-0.8-5c-2.8-3.5-9.2-1.1-9.2-1.1c-0.1-1.3,0-3.8,0-3.8L584.4,83c-1-6.7-5.5-5.2-5.5-5.2
			c-4.2,0.9-4.4,4.3-4.4,4.3c-2.3,36.7,2.5,53.9,2.5,53.9l16.1,72.5c-4.1,2.3-4.9,5.7-4.9,5.7c-6.8,4.2-4.5,9.3-4.5,9.3l-14.9,10.4
			c-0.3-5.5-4.5-13.5-4.5-13.5c1.9-18.7-10-32.1-10-32.1c6.5-6.1,5.3-10.7,5.3-10.7l-1.3-23.4c0.1-7.5-3.2-6.5-3.2-6.5
			c-2-17.5-14.8-20.9-22.1-19.6c-25.3,4.5-19.8,29.8-19.8,29.8c-3.1,5.1,2.2,20.6,2.2,20.6c-11.4,3.8-18.1,11.7-18.1,11.7
			c-4.6,2.9-9.7,17.8-9.7,17.8c-2.5,2.8-3.3,9.3-3.3,9.3c-6.8,9.4-13.1,30.4-13.1,30.4c-2.3,2.9-2.2,9-2.2,9
			c-2.2,1.3-1.8,3.9-1.8,3.9c-1.8,2-0.7,8.4-0.7,8.4l-1.3,1.9c-17.7,5.7-22.8,31.4-22.8,31.4c-1.8,1.2-0.9,4.3-0.9,4.3
			c-0.6,1.5,0.9,3.6,0.9,3.6c-1.7,0.8-1.8,3.8-1.8,3.8c-1.2,1.2-0.7,4.5-0.7,4.5c-2.5,11.6-8,25.5-8,25.5c-3,3.5-5,10.5-5,10.5
			c-4,2-9,10.2-9,10.2c-17,1.4-24.8,19-24.8,19c-3.9,9.7-13.5,19.7-13.5,19.7c-16.9,0-14.8,13.2-14.8,13.2
			c1.4,7.5-0.1,18.3-0.1,18.3c-3.5,10.6,6.4,21.3,6.4,21.3c4.6,8.1,15.9,5.1,15.9,5.1c7.7-2.8,1.2-19.4,1.2-19.4
			c17.4-2.2,6.1-9,6.1-9l38.2-30c8.9,0.1,10.1-5.3,10.1-5.3c4.6,0.3,4.9-3.8,4.9-3.8c4.6-1.1,6.9-6.3,6.9-6.3
			c4.2-7.7,13.5-16.3,13.5-16.3c6.2-6.1-0.9-6.5-0.9-6.5c7.2-14.8,20.2-25,20.2-25c3-3.5,6.6,2.1,6.6,2.1l23.5,30.3
			c-15.8,10-24,33.6-24,33.6l-17.9,21l-1.3-0.2c-4.7,2.1-7.6,16.4-7.6,16.4c-1.5,0.8-2.5,3.7-2.5,3.7c-2.6,3.4,1,5.7,1,5.7l16.9,7
			c14.6,5.5,28.3,3.6,28.3,3.6c8.8-0.1,6-7.3,6-7.3c-1.6-4.6-11-6.4-11-6.4c-6.7-2.9-2.7-5.6-2.7-5.6c9.6-1.2,4.5-6,4.5-6l49.5-46
			c7.4-0.5,6.5-7.3,6.5-7.3c4.1-2.4,3.5-7.1,3.5-7.1c4.3-4.2,3-9.4,3-9.4c3-9.3,10.3-19.4,10.3-19.4c10.7-10.9-7.4-14.4-7.4-14.4
			c-13.6-3.6-22.3,4.6-22.3,4.6c0.1-12.8-10.3-26.1-10.3-26.1c-7.1-11.2-4.5-13.6-4.5-13.6c9.6-8.8,2.5-17.4,2.5-17.4
			c1.9-2.5,6.8-13.2,6.8-13.2c1.7,1.5,10,3.5,10,3.5c7.7,5.8,13.2-3.9,13.2-3.9c7-0.6,18.1-2.6,18.1-2.6h1.4c9-1.4,19-5.3,19-5.3
			c1.3,9.2,6.4,7.4,6.4,7.4c5.1-1.5,3.2-6.4,3.2-6.4l-1.2-6.3C625.2,250.1,620.5,243.6,620.5,243.6z M551.4,170.1
			c0.8,0,3.5-0.9,3.5-0.9v3.3c-1.5,1.3-4.6,2.4-4.6,2.4C551,173.3,551.4,170.1,551.4,170.1z M550.9,176.7c2-0.4,6.7-4.4,6.7-4.4
			l0.4,4.4c-1.4,2.4-5.6,4.1-5.6,4.1C552.1,179.5,550.9,176.7,550.9,176.7z M553.8,186.4l-0.9-4c2-0.9,5.6-3.6,5.6-3.6
			C558,182.7,553.8,186.4,553.8,186.4z M594.7,241.4c0,0-2.4,7.3-13.7,6.4l9.2-10c0,0,4.2-5.3,10.3-3.9
			C600.5,233.9,596.6,238.6,594.7,241.4z"/>
		<path d="M903.9,421.4c0.3-5-6.1-9.1-6.1-9.1c-2.8-1.2-8.3-6.2-8.3-6.2c12.9,3.4,6.2-1.1,6.2-1.1c0.9-4.3-5.5-8.9-5.5-8.9
			L858,334.4c1-5.9-4-6.7-4-6.7c0-3.6-3.4-4.5-3.4-4.5c1.4-6-4.3-7.7-4.3-7.7c0.1-2-1.8-4-1.8-4l-6.7-10.3
			c-6.4-12.8-16.4-7.4-16.4-7.4c-6.1-7.6-20.9-19.6-20.9-19.6c-1.2-3.6-7.7-8.2-7.7-8.2c-2.3-0.8-2.2-4.1-2.2-4.1
			c0.4-6.9-5.1-16.7-5.1-16.7c-1.3-7.5-3.3-19.1-3.3-19.1l9.2,7.4c3,3,5.3-2.7,5.3-2.7l5.4,1c4,1.4,7.3-1.2,7.3-1.2
			c9.1-1.8,13.9-5.9,13.9-5.9l17.4-14.7c10,0.9,15-10.1,15-10.1c6.5-3.8,0.2-10.2,0.2-10.2c0.4-2.5-1.7-4.6-1.7-4.6
			c0.8-1.8-0.1-3.3-0.1-3.3c0.8-3.5-1.2-5.7-1.2-5.7c2.5-2.3,2-6.6,2-6.6c-0.2-6.2-5.5-10.1-5.5-10.1c-0.5-2.7-4.9-5-4.9-5
			c-6.9-25.7-8.6-67.9-8.6-67.9c0.7-6.8-5.7-8.6-5.7-8.6l-4.4-1.6c-10.1-4.2-11.3,2.1-11.3,2.1c-4.6,29.1,11.8,79.4,11.8,79.4
			l1.3,1.1c-4.2,2.3-2.7,6.8-2.7,6.8l1,5.1l-7.1,3.9l-8.6,3c-10.3,1.4-19,5.3-19,5.3c-6.5,3.1-14.9,0.5-14.9,0.5
			c-0.4-1.6-3.6-1-3.6-1l-5.1-1.5c-2.7-1.7-6.2-1.2-6.2-1.2c-1.3-0.5-2.8-0.2-2.8-0.2l3.7-3.7c6,1,7.6-0.9,7.6-0.9
			c5.1-7.6,6.1-17.7,6.1-17.7c1-3.6-1.9-3.8-1.9-3.8l-7.1-1.1c-0.1-1.9-0.4-5.2-0.4-5.2c2.3-2.2,2-3.7,2-3.7
			c12.9,0.5,11.2-1.3,11.2-1.3c0.2-1.4-6.2-1.9-6.2-1.9c-2.9-0.6-2.8-2.9-2.8-2.9c-1.4-27.9-27.6-20.5-27.6-20.5
			c-20.9,5-19.2,26-19.2,26c-1.2,5,3.8,5.2,3.8,5.2c0.7,6.2,3,10.7,3,10.7c-10.7-1.2-6.5,6.2-6.5,6.2l-0.3,9.4
			c-2.2,1.7-0.6,3.3-0.6,3.3c-10.4,4.5-9.3,16-9.3,16c-5.1,37.9,7,73,7,73c-0.2,7.6,3.4,14.6,3.4,14.6l1.6,7.2
			c-5.1,16.1,10.4,32.5,10.4,32.5c1.6,5.1,8.3,9.3,8.3,9.3c2.1,4.8,6.4,6.3,6.4,6.3l20,23.4c-3.1,4.1,0,9.2,0,9.2l5.2,10.7
			c0.5,5.5,5.2,7.1,5.2,7.1c1.6,3.5,3.1,3.9,3.1,3.9c2.4,7.6,7.6,8.9,7.6,8.9l31.1,39.8c1.7,3.4,3.7,4.1,3.7,4.1c3.1,2,4-0.9,4-0.9
			c0.7-3.5,2.3-4.2,2.3-4.2c1.8,4.1,5.5,16,5.5,16c-0.6,6.5,4.3,8.1,4.3,8.1c12.7,1.7,15-1.8,15-1.8c7.9-7.9,0-15,0-15
			c-0.5-2.4-5.1-7.2-5.1-7.2c1.3-1.5,1-6.7,1-6.7c1.4-8.9-5.1-12.3-5.1-12.3l-10.7-11.8c-2.2-13.4-16.3-34.6-16.3-34.6
			c-0.5-2-4.3-5.1-4.3-5.1c-2-7.1-9.2-16.7-9.2-16.7c-1.8-3.8-12.6-21.3-12.6-21.3C816.1,346.1,825,349,825,349l1.5,2.4
			c-0.4,2.7,2.1,7,2.1,7c12.1,21.9,24.8,33.3,24.8,33.3l10.9,23.5c1.2,4.7,5,5.6,5,5.6c0.5,1.9,1.4,6,1.4,6
			c-0.7,6.5,5.8,4.3,5.8,4.3l8.3-2.1C904.8,423.6,903.9,421.4,903.9,421.4z M801,201.9c6.6-1.6,13.6-7.6,13.6-7.6
			c7-6.3,18.8-12.1,18.8-12.1c-3.3,3.3-2.4,9.4-2.4,9.4c0,2.9-1.3,4.5-1.3,4.5c-1.3,1.2-1.3,4.8-1.3,4.8c-2.5,2.7-11.1,4.7-11.1,4.7
			c-4.2,0.8-10.1,2.8-10.1,2.8c-6.5,3-8.7,0-8.7,0c-1.7-2.8-5.7-3.6-5.7-3.6L801,201.9z M770.3,171.7c0-0.8-0.5-2.4-0.5-2.4l1.7-0.4
			L770.3,171.7z M769.5,168c-0.3-0.7-1.4-2.6-1.4-2.6c1.7,0.5,3.5,2.4,3.5,2.4L769.5,168z M772.1,166.4c-0.3-0.8-4.4-2.8-4.4-2.8
			l-1.2-1.9c1.9,0,6.7,0.5,6.7,0.5C773.1,163.1,772.1,166.4,772.1,166.4z M768.4,154.8h6.2c0.2,1.9-0.6,4.8-0.6,4.8
			c-0.8-1.3-5.8-3.3-5.8-3.3S768.3,154.9,768.4,154.8z M766.9,157.6c2.8,0.4,5.8,2.9,5.8,2.9h-6.3l-0.6-0.2L766.9,157.6z
			 M764.6,163.7c0,0,2.9,1,3.5,4.3c0,0-4.2-0.1-5.3-0.7L764.6,163.7z M762.7,168.9c1.9,0.6,6,0.3,6,0.3c0.4,0.7,0.6,3,0.6,3
			c-0.7,4.3-7.9,1.4-7.9,1.4C762.7,172.5,762.7,168.9,762.7,168.9z"/>
		<path d="M1334.2,414.7c-0.5-4.7-13.7-4.5-13.7-4.5c-7.9-5.2-9-2.2-9-2.2c-9.9-1.8-25.1-15.7-25.1-15.7c-23.3-23.7-50-27.5-50-27.5
			c-1.2-6.9-10.4-22.4-10.4-22.4l-16.7-29.8c8.8-33.2-25-45.6-25-45.6c-0.2-3.8-7.8-9.1-7.8-9.1l-23-27
			c-23.6-31.6-59.9-43.9-59.9-43.9c-2.1-5.7-5.5-4.9-5.5-4.9l-1.9-11.1c-1.3-8.9-4.7-9.5-4.7-9.5c-8.4-19-29.3-12-29.3-12
			c-19.2,7.1-13.5,26.1-13.5,26.1c-2.5,5.4,4.5,7.3,4.5,7.3l1.7,5.9c-4.7,2.4-3.6,3.2-3.6,3.2l5.4,14.6c4.8,5.1,17.3,2.3,17.3,2.3
			l3.4,3.2l-9.2,23.9c-9.7,2.9-18.3,8-18.3,8c-10.1,6.3-13,3.3-13,3.3l-5.9-7.8c-0.2-4.3-2.6-6.4-2.6-6.4c-0.6-4.8-3.8-7.7-3.8-7.7
			c-0.8-4.3-5.4-5.7-5.4-5.7c-0.6-18.6,5.8-43.1,5.8-43.1c2.6-11,1.8-25.3,0.6-35.8c-0.9-8-3.1-22.5-3.8-25.4c-2.5-10.9-6-9-6-9
			c-5,1.5-4.8,12.7-4.8,12.7l-0.6,102h-7.5c-6.3,0.6-5.2,6.8-5.2,6.8c-2.9,1.8-1,5.8-1,5.8c-3.3,2.9-0.5,7.3-0.5,7.3
			c-3.8,3.7,0,9.1,0,9.1l3.8,3.6c0.6,5.6,5.7,7,5.7,7v13.7c0.2,3.5,4.4,2.9,4.4,2.9c4.4,0,5.1-2.8,5.1-2.8v-11.1
			c4.5,3.8,13.7,3.4,13.7,3.4l15.2,14.6c7.1,5.3,16.2-2.3,16.2-2.3l17.2-15.5c4.8,3.2,7.7-0.7,7.7-0.7l10.2-10.6
			c8.3,1.1,19.8,16.9,19.8,16.9c6.4,11.1,26.9,32.2,26.9,32.2c-9.5,9.8-33.3,48.2-33.3,48.2c-2-2.3-8.8-3.2-8.8-3.2
			c-2.9-0.3-8-2.6-8-2.6c-8.3-2-5.7,4-5.7,4l11.4,27.6c-0.2,3.6,4,6.6,4,6.6c1.2,3.7,4.3,5.8,4.3,5.8c1.5,5.1,5.6,5.4,5.6,5.4l6,4.5
			c16,14.6,35.5,44.7,35.5,44.7c-4.1,1.4-5.8,4.9-5.8,4.9c-1.1,2.1-4,2.9-4,2.9c-9.2,0.2-9.4,5.7-9.4,5.7c0.3,6.6,7.7,7.1,7.7,7.1
			h14.6c10.9,0,18.2-5.2,18.2-5.2c16.7-1.8,22.5-8.1,22.5-8.1c3.7-4.5-1.7-8.6-1.7-8.6l-3.8-11.4c0.2-6.4-3.4-1.2-3.4-1.2
			c-21.5-26.9-20.9-30.7-20.9-30.7c-3.7-15.4-16.4-26.9-16.4-26.9c11.4-6,26.3-25,26.3-25c2-2.4,18.6,20,18.6,20
			c-5.7,9.4,0.2,11.8,0.2,11.8c14,8.6,21.8,17.5,21.8,17.5c4.5,5.4,8.6,4.1,8.6,4.1c11.4,8.6,15,5.2,15,5.2
			c13.7,8.6,24.8,13.2,24.8,13.2c17.3,6.7,39,20,39,20c1.2,2.9,5.5,3.8,5.5,3.8l-1,8.9c-14.3,8.8-6.9,9.9-6.9,9.9l20.7-0.7
			c10.8-2.1,12.2-20,12.2-20C1335.9,422.8,1334.2,414.7,1334.2,414.7z M1043,191.7c0.3-0.2,1.8-0.7,1.8-0.7l1.8,4.4l-2.1,0.9
			L1043,191.7z M1044.8,198.2l2.6-0.9c1.6,2.4,3.6,5,3.6,5c-0.9,0.9-4,1.5-4,1.5L1044.8,198.2z M1047.9,205.2c1.3-0.2,4-1.4,4-1.4
			l4,4.3C1050.6,208.8,1047.9,205.2,1047.9,205.2z"/>
		<path d="M351.3,538.8l-1.1-4.2c-2.5-7.6-9.3-5.3-9.3-5.3c-30.3,8.9-102.9,57.3-102.9,57.3v2.4l-1.7,1.4
			c-17.7-14.9-25.6,0.7-25.6,0.7c-3.1,0-9,1.8-9,1.8l-22.1,4.5c-14.9,0.4-29.8,7.8-29.8,7.8l-5.2-3.4c4.3-6.2,1.8-20.2,1.8-20.2
			c7.4-3.1-1.9-3.8-1.9-3.8c-2.3-1.5-1.3-8.4-1.3-8.4c17.2-6,0-6.1,0-6.1c-4.6-19.4-22.4-16.7-22.4-16.7c-24.5,2.7-23.5,27-23.5,27
			c-4.7,4.6,0.8,6.5,0.8,6.5c4.2,18.3,15.6,17.6,15.6,17.6l1.5,6.5c-19.3,2.3-18.8,22.2-18.8,22.2l0.2,18.1
			c-1.1,13.6,5.6,16.4,5.6,16.4l11.2,14.6l1.5,41.6c-0.8,4.8-0.4,9.1-0.4,9.1c-3.7,7,0.7,7,0.7,7c-12.7,29.8-4.3,77.6-4.3,77.6
			c-5.7-6.6-15.6-8.2-15.6-8.2c-10.1-1.1-9.8,4.5-9.8,4.5c-0.1,5.6,6,7.8,6,7.8l7.7,8.1c1.8,5.2,4.6,6.9,4.6,6.9l-18.7,39.9
			c-4.5,3.7-3.7,9.6-3.7,9.6c-3.7,0.1-3.2,3.2-3.2,3.2c-15.9,3.5-18.3,8.2-18.3,8.2c-3.7,7.4,4.6,11.1,4.6,11.1
			c26.1,8.7,32.7-2.4,32.7-2.4c3.1,1.3,7.7,0.6,7.7,0.6c13.8-2.8,9.7-7.7,10.8-10.1s0-7.9,0-7.9c7.6-24.5,20-32.6,20-32.6l49.3,29.3
			c-4.3,5.9-9.1,17.9-9.1,17.9c-3.5,11,10.1,7.9,10.1,7.9c14.1-3.1,20.3-20,20.3-20c0.7-6.9,6.5-9.3,6.5-9.3
			c8.4-3,10.8-12.9,10.8-12.9c2.1-10.1-4.9-10.1-4.9-10.1c-4.8-3.4-16-4.5-16-4.5c-17.4-8.3-24.2-16-24.2-16
			C172.8,820.2,151,813,151,813c2.3-3.7,2.5-7.9,2.5-7.9c3.5-3.2,2.8-6.8,2.8-6.8c19.8-17.7,30.5-42.3,30.5-42.3
			c9.6-14.3,12.5-29.5,12.5-29.5c2.8-2.1,1.7-8.2,1.7-8.2c-0.8-10.1-5.5-20-5.5-20l-10.5-49.4c6.3,5.5,17,9.8,17,9.8
			c8.4,3,10.2-1.3,10.2-1.3c3.2-2.4,3.1-5,3.1-5l-0.1-18.8c3-1.8,2.5-4.3,2.5-4.3c2.1-0.3,3-3.4,3-3.4c3.4-2.7,2-6.2,2-6.2
			c4.9,0.7,5-3.7,5-3.7c3.8,1.6,4.5-2.6,4.5-2.6c5,1.8,6.3-4.3,6.3-4.3c7.5,0.5,4.2-10.3,4.2-10.3c3.4,1.9,6.2,0.2,6.2,0.2
			c34.6-23.6,96.3-51.8,96.3-51.8C353.3,544.3,351.3,538.8,351.3,538.8z M197.8,615.6l-11.1,7.5l-4.1-5.5c4.7-2.7,17.4-8.1,17.4-8.1
			C198.2,611,197.8,615.6,197.8,615.6z"/>
		<path d="M563,889.3l-5.9-8.5c3.4-7.7-3-12.2-3-12.2L520.3,802c2-6.5-3.1-8.9-3.1-8.9c0-4.1-2.7-5.6-2.7-5.6
			c-0.2-5.8-5.3-7.3-5.3-7.3l-11.1-15.9c-13.8-19.6-27.9,4.4-27.9,4.4c-12.7-10.2-34.3-18.7-34.3-18.7l-1.6-5
			c3.2-15.9-5-52.7-5-52.7l2.7-0.8c7.2,1.6,11.5-6.7,11.5-6.7c3.2-3.8,15.2-17.1,15.2-17.1l0.2,13.5c-0.3,10.7,7.2,18.9,7.2,18.9
			c9.6,12.6,13.1,5.1,13.1,5.1l6-61.1c21-13.5,7.8-34.1,7.8-34.1c4.6-2.4,1.9-9.9,1.9-9.9c1.9-10.7-12.6-18.3-12.6-18.3
			c-20-6.7-27.2,16.8-27.2,16.8c-3.5,1.9-13.6,13.5-13.6,13.5c-4.4,2.6-16.9,10.8-16.9,10.8c-4.1,0-13,2-13,2l-0.1-6.3
			c2.6-3.9-1.4-7.3-1.4-7.3c-0.5-22.3-22.9-21.5-22.9-21.5c-23,0.1-23.8,19.1-23.8,19.1c-3.8,2-1.1,8.8-1.1,8.8
			c-1.4,28,3.2,31.6,3.2,31.6c1.1,3-1.7,3.4-1.7,3.4l-3.1,0.8c-5.1,1.7-3.8,7.8-3.8,7.8c-14.2,13.1,2,53.9,2,53.9
			c4.9,14.2,4.8,29.2,4.8,29.2c-2.4,12.3,5.8,14.2,5.8,14.2l-0.7,5.5c-10.2,4.3-8.5,12.8-8.5,12.8c-2.2,3.2-0.9,7-0.9,7l-1.8,18.6
			c-3.2,18.7-12.7,44.2-12.7,44.2c-4.6,2.4-11.8,9-11.8,9c-18.4,2-28,9-28,9l-11.4,0.2c-13.5,0.2-16.7,7.3-16.7,7.3
			c-3.8,5.1-7,5.8-7,5.8c-21.5,5.6-11.6,22.2-11.6,22.2c9.2,11,33.6-1.4,33.6-1.4c1.9,3.1,8.4,0,8.4,0l30-3.4
			c19.1,9.4,43.7-3.4,43.7-3.4c6.5-1.9,2.2-6.3,2.2-6.3c-5.6-2.7-11.1-10.1-11.1-10.1c13.8-5.3,19.3-16.8,19.3-16.8
			c8.9-18.4,29.6-44.6,29.6-44.6c23.7,1.8,67.8,3.9,67.8,3.9c5.7,25,25.4,43.2,25.4,43.2c6.5,6.8,13.3,18.9,13.3,18.9l-0.5,11
			c-3.5,9.4,3.9,9.9,3.9,9.9l35.3,0.2C570.6,900.8,563,889.3,563,889.3z M421.5,665.3c-0.5-3.5,3.6-5.7,3.6-5.7l15.8-13.2
			c8.6-5.3,7.3-12.9,7.3-12.9l11.1-6.9c4.3,3.3,1.7,6.8,1.7,6.8c-5.5,3.4-6.4,9.3-6.4,9.3c-5.1,5.9-30.4,30-30.4,30L421.5,665.3z"/>
		<path d="M806.6,774.3c0,0-36.9,30.2-46.1,35.8c0,0,8.1,12.2-6.6,15.7c0,0-7.7,2.6-11.7,7.7c0,0-1,3.6-5.4,2.3c0,0-0.5,6.1-8.3,3.9
			c0,0-0.7,4.9-6.1,3.3c0,0-0.4,5-7.4,2.1L642.5,887c0,0-7.3,3.1-0.8-7.9c0,0,2.5-3,0.2-4.8c0,0-7,2-14.2,20.8
			c0,0-4.9,10.9-11.4,10.1c0,0-7.8,1.2-10.2-13.3c0,0-1-13.1,6.2-18.7c0,0,4.7-3.6,3.5-9c0,0-3.1-11,6.9-14.2c0,0,10.8-1.5,14,0.7
			l41.7-29.5c0,0,15.6-14,33.7-14.3c0,0,25.9-28,35.9-50.5c0,0,4.9-32.7,29.1-40.3l7.9-5.2c0,0,1.1-3.7,4.8-5.5l50-43.6
			c0,0,19.4-18.1,31-20v-16.2c0,0-0.4-6.6,4-7.7c0,0,3.3-22.9,27-19.5c0,0,21,3.9,17.6,26.7c0,0,5.7-0.7-0.9,22.6
			c0,0-3.9,13.8-17.8,15.4c0,0,6.7,8.6,10.2,18.9c0,0,5.1,6.7,13.1,6.8c0,0,27.7,0.7,37-1.5V686l10-0.8c0,0-1.4-6.8,5.5-10.7
			c0,0-26.4-79-19.8-105.6c0,0,2-5,8.7-9.6c0,0,9.3-7.8,9.8,2.2c0,0,3.3,37.6,16,97.9c0,0,0.7,2.8-2.4,4.2l1,5.2
			c0,0,12.5-2.3,12.3,5.5c0,0,2.5,3.1,1.2,5.4c0,0,2.9,3.5,1.7,5.2c0,0,3.1,4.4,1,6.4c0,0,4.1,3.9,2.2,7c0,0,3.1,2.3,2,5.1
			c0,0,2.2,6.3-10.9,8.5l1.5,7.1c0,0-0.9,2.3-5.2,3.1c0,0-5.5,1.2-6-2l-1-7.5c0,0-9,3.4-16.6,2.8l-7.7,2.8l-1.8-0.2
			c0,0-11.1,6.9-31.5,11.7c0,0-9.3,3.1-13.4-2.5l-21.7-22.9c0,0-1.6,2.3-5.5-4.8c0,0-22.1,27-50.5,40.6c0,0-3.1,2.6,0.7,5
			c0,0,29.3,25.1,42.6,48.3c0,0,14.4-15.3,23.2-9c0,0,9.6,5.5-8.5,23c0,0,1.5,6.2-2,7.9c0,0,0.4,5.4-3.5,7c0,0-0.1,4.1-4.5,5.7
			c0,0,0.3,4.2-6.1,6.4l-48.5,54.5c0,0,7.7,4.4,8.5,6.1c0,0,12.9-0.9,14.4,3.5c0,0,3.3,7.7-16.4,6.6l-31.2,0.1c0,0-33-3.7-19.9-16.8
			c0,0,5-16,10.9-14.6l29.3-35.5c0,0,8.5-21.3,11.9-25.4l-29.4-37C811.2,775.9,808.9,772.4,806.6,774.3z"/>
		<path d="M1338.3,696.6l-95.9-54.3c-2.5-1.6-3.6,0.7-3.6,0.7c-1.7,3-3.8,1.8-3.8,1.8c0.6-8.6-4.8-6.7-4.8-6.7l0-2.6
			c0.3-9.2-9.2-1.9-9.2-1.9c5.5-7.5-4.1-9.9-4.1-9.9c-0.9-3.3-5.3-6.1-5.3-6.1c-1.8-4.7-6.5-4.9-6.5-4.9c-2.7-3.3-8.2-2.3-8.2-2.3
			c-3.3-0.8-3.5,2.6-3.5,2.6c-1.9,1.8-1.2,3.9-1.2,3.9h-11.5c-20.3-4-38.8-0.4-38.8-0.4l-18.1,3.5l1.9-3.6
			c21.2-0.9,4.2-11.2,4.2-11.2c-3.3-19.7-22.4-21-22.4-21c-23.6-2.3-25.2,19.9-25.2,19.9c-4.2,6.3,0.1,10.6,0.1,10.6
			c-1.7,8.1,3,14.7,3,14.7v2.5c-11.7,4.2-10.2,8.1-10.2,8.1c-7.5,11.6-3,28.7-3,28.7c3.7,18.9,19.9,55.4,19.9,55.4
			c1.9,9.2,5.1,10.2,5.1,10.2l4.3,7.5c-0.2,4.2,1.1,6.2,1.1,6.2c-6.8,25.8,5.4,33.5,5.4,33.5c2.8,2.6,2.5,6.5,2.5,6.5
			c-1.1,2-0.5,5.9-0.5,5.9c-3,11.8-0.5,16.5-0.5,16.5c-2.6,1.4-0.9,6.6-0.9,6.6c-3.5,2.5-4.5,9.4-4.5,9.4c-1.2-0.4-2.4,1.1-2.4,1.1
			c-14.4,2.6-50,26.4-50,26.4l-23.1,12.3c-4,0.6-5.4,3.3-5.4,3.3l-10.9,5.9c-5.6,4.2,3.1,12.3,3.1,12.3
			c-5.6,6.8,10.6,15.1,10.6,15.1c22.7,4.5,16.5-5.9,16.5-5.9c46.4-27.3,70-32.5,70-32.5c5.6,2.8,7.9-2.6,7.9-2.6
			c4.2,1.4,6.8-2.1,6.8-2.1c5.3,1.8,7.9-3.5,7.9-3.5c2.2,0,5.2-2.9,5.2-2.9c5.2-3.7,13.6-8.1,13.6-8.1c4.3-2.5,5.1-5.6,5.1-5.6
			c1.6-10.4-10.4-16.8-10.4-16.8c2.5-5.4,11.6-28,11.6-28c9.9,3.7,41,9.6,41,9.6c-3.1,4-5,21-5,21c-1.7,2.3-3.3,15.1-3.3,15.1
			c-1.9,2.6-3.4,12.6-3.4,12.6c-1.6,3.4-2.8,7.5-2.8,7.5c-1.6,0.9-3.1,3.8-3.1,3.8c-3.1,1.9-7.9,7.5-7.9,7.5
			c-5.8,4.1-1.8,7.6-1.8,7.6c6.8,6.9,14.2,9.7,14.2,9.7c6.1-0.5,8.3,3.1,8.3,3.1c10.1,10.4,21,12.9,21,12.9h11.4
			c3.6-6.9-4.7-11.7-4.7-11.7c-5.3-2.8-5.6-9.1-5.6-9.1c3-1.1,1.9-6.2,1.9-6.2c12.6-48.9,22.5-71.3,22.5-71.3c7.9-0.9,5.3-9,5.3-9
			l2.5-5.7c6.4-6.2,1.4-15.8,1.4-15.8c-2.3-10.9-0.2-16.9-0.2-16.9c4.8-7.1,1.1-10.7,1.1-10.7c-14.1-5.4-25.5,19.1-25.5,19.1
			c-23.1-14.6-59.6-28-59.6-28c-1.4-6.8-10.2-9-10.2-9l-2.3-3.6c3-6.2-1.8-13-1.8-13s-17.5-26.7-12.8-26.7s12.4,0.7,12.4,0.7
			c2.6,0.6,5-0.1,5-0.1l5.8,0.9c5.4,1.6,9.2-3.3,9.2-3.3c15.4-7.3,29.8-19.7,29.8-19.7c16.8,4.5,29.5-9.1,29.5-9.1
			c0,2.9,0.8,4.5,0.8,4.5c32.3,24.4,94,55.1,94,55.1c6.1,3.9,10.5-5.8,10.5-5.8C1344.7,698.4,1338.3,696.6,1338.3,696.6z
			 M1211.7,644.7l-7.1,3.8c-6.3,2.3-10,6.5-10,6.5c-11.2,6.8-34.2,13.5-34.2,13.5c-2.1-6.4-6.2-3.7-6.2-3.7c-1.8-1.8-15-4.5-15-4.5
			c-1.6-1-5.7-2.4-5.7-2.4c-1.7-3.9-9.1-7.9-9.1-7.9c6.8-5.4,7.9-10.6,7.9-10.6c2.5-2.3,9.9-5,9.9-5c17.2,0,28.1-3,28.1-3h9.9
			l11.3,2.6c11.1,12.1,19.3,7.4,19.3,7.4C1214.7,643.7,1211.7,644.7,1211.7,644.7z"/>
	</g>
</g>
</svg>
